<svg width="680" height="650" viewBox="0 0 680 650" xmlns="http://www.w3.org/2000/svg" font-family="Arial, sans-serif">
<rect width="680" height="650" fill="#ffffff"/>
<defs>
<marker id="arrow" viewBox="0 0 10 10" refX="8" refY="5" markerWidth="6" markerHeight="6" orient="auto-start-reverse"><path d="M2 1L8 5L2 9" fill="none" stroke="#444444" stroke-width="1.5" stroke-linecap="round" stroke-linejoin="round"/></marker>
</defs>

<g>
<rect x="190" y="40" width="300" height="56" rx="8" fill="#F1EFE8" stroke="#5F5E5A" stroke-width="1"/>
<text x="340" y="60" text-anchor="middle" font-size="14" font-weight="bold" fill="#2C2C2A">Simulated device layer</text>
<text x="340" y="78" text-anchor="middle" font-size="12" fill="#444441">15 devices, cron-driven</text>
</g>

<line x1="340" y1="96" x2="340" y2="156" stroke="#444444" stroke-width="1.5" marker-end="url(#arrow)"/>

<rect x="140" y="156" width="400" height="110" rx="16" fill="#ffffff" stroke="#5F5E5A" stroke-width="1"/>
<text x="160" y="176" font-size="14" font-weight="bold" fill="#2C2C2A">Data layer</text>

<rect x="160" y="196" width="170" height="60" rx="8" fill="#E6F1FB" stroke="#185FA5" stroke-width="1"/>
<text x="245" y="216" text-anchor="middle" font-size="14" font-weight="bold" fill="#0C447C">MongoDB</text>
<text x="245" y="236" text-anchor="middle" font-size="12" fill="#185FA5">Devices &amp; alerts</text>

<rect x="350" y="196" width="170" height="60" rx="8" fill="#E1F5EE" stroke="#0F6E56" stroke-width="1"/>
<text x="435" y="216" text-anchor="middle" font-size="14" font-weight="bold" fill="#085041">Redis</text>
<text x="435" y="236" text-anchor="middle" font-size="12" fill="#0F6E56">5s response cache</text>

<line x1="340" y1="266" x2="340" y2="326" stroke="#444444" stroke-width="1.5" marker-end="url(#arrow)"/>

<rect x="210" y="326" width="260" height="56" rx="8" fill="#EEEDFE" stroke="#534AB7" stroke-width="1"/>
<text x="340" y="346" text-anchor="middle" font-size="14" font-weight="bold" fill="#3C3489">Express API</text>
<text x="340" y="364" text-anchor="middle" font-size="12" fill="#534AB7">REST + Socket.IO + cron</text>

<line x1="280" y1="382" x2="210" y2="442" stroke="#444444" stroke-width="1.5" marker-end="url(#arrow)"/>
<line x1="400" y1="382" x2="470" y2="442" stroke="#444444" stroke-width="1.5" marker-end="url(#arrow)"/>

<rect x="100" y="442" width="220" height="56" rx="8" fill="#E1F5EE" stroke="#0F6E56" stroke-width="1"/>
<text x="210" y="462" text-anchor="middle" font-size="14" font-weight="bold" fill="#085041">Web dashboard</text>
<text x="210" y="480" text-anchor="middle" font-size="12" fill="#0F6E56">Live via Socket.IO</text>

<rect x="360" y="442" width="220" height="56" rx="8" fill="#FAECE7" stroke="#993C1D" stroke-width="1"/>
<text x="470" y="462" text-anchor="middle" font-size="14" font-weight="bold" fill="#4A1B0C">Discord bot</text>
<text x="470" y="480" text-anchor="middle" font-size="12" fill="#993C1D">!status !room !usage</text>

<line x1="210" y1="498" x2="210" y2="558" stroke="#444444" stroke-width="1.5" marker-end="url(#arrow)"/>
<line x1="470" y1="498" x2="470" y2="558" stroke="#444444" stroke-width="1.5" marker-end="url(#arrow)"/>

<rect x="100" y="558" width="220" height="44" rx="8" fill="#F1EFE8" stroke="#5F5E5A" stroke-width="1"/>
<text x="210" y="584" text-anchor="middle" font-size="14" font-weight="bold" fill="#2C2C2A">Browser (dashboard)</text>

<rect x="360" y="558" width="220" height="44" rx="8" fill="#F1EFE8" stroke="#5F5E5A" stroke-width="1"/>
<text x="470" y="584" text-anchor="middle" font-size="14" font-weight="bold" fill="#2C2C2A">Discord channel</text>
</svg>
